<svg width="76" height="24" viewBox="0 0 76 24" fill="none" xmlns="http://www.w3.org/2000/svg">
<g clip-path="url(#clip0_266_7876)">
<path fill-rule="evenodd" clip-rule="evenodd" d="M47.4088 18.5807C43.0429 21.8972 36.7148 23.6666 31.2665 23.6666C23.627 23.6666 16.7494 20.7546 11.5463 15.9113C11.1375 15.5305 11.5038 15.0114 11.9944 15.308C17.6095 18.6751 24.5525 20.7007 31.7243 20.7007C36.5611 20.7007 41.882 19.6693 46.7744 17.5291C47.5135 17.2056 48.1316 18.0279 47.4088 18.5807Z" fill="#FF9900"/>
<path fill-rule="evenodd" clip-rule="evenodd" d="M49.2236 16.4404C48.6676 15.7057 45.5346 16.0933 44.1284 16.2652C43.7 16.3191 43.6346 15.9349 44.0205 15.6585C46.5157 13.8486 50.6102 14.371 51.0876 14.9777C51.5651 15.5877 50.9634 19.8176 48.6186 21.8365C48.2588 22.1465 47.9154 21.9814 48.0757 21.5702C48.6022 20.2153 49.7828 17.1786 49.2236 16.4404Z" fill="#FF9900"/>
<path fill-rule="evenodd" clip-rule="evenodd" d="M44.2269 2.88149V1.12214C44.2269 0.855877 44.4232 0.677246 44.6586 0.677246H52.3014C52.5467 0.677246 52.7429 0.859248 52.7429 1.12214V2.62871C52.7396 2.88149 52.5336 3.21179 52.1673 3.7342L48.2069 9.56164C49.6786 9.52456 51.232 9.75038 52.5663 10.5256C52.8672 10.7008 52.9489 10.957 52.9718 11.2098V13.0871C52.9718 13.3432 52.6971 13.6432 52.4093 13.4882C50.058 12.2175 46.9348 12.0793 44.3349 13.5016C44.07 13.6499 43.792 13.3533 43.792 13.0972V11.3142C43.792 11.0278 43.7953 10.5391 44.0732 10.1043L48.6615 3.32301H44.6684C44.4232 3.32301 44.2269 3.14438 44.2269 2.88149Z" fill="#1D1E25"/>
<path fill-rule="evenodd" clip-rule="evenodd" d="M16.347 13.8586H14.0218C13.7994 13.8418 13.6228 13.6699 13.6064 13.4508V1.15222C13.6064 0.906179 13.8059 0.710694 14.0545 0.710694H16.2227C16.4484 0.720798 16.6282 0.899436 16.6446 1.12188V2.72957H16.6871C17.2529 1.17581 18.3157 0.451172 19.7481 0.451172C21.2034 0.451172 22.1126 1.17581 22.7667 2.72957C23.3292 1.17581 24.6079 0.451172 25.9781 0.451172C26.9527 0.451172 28.0188 0.865732 28.6696 1.79596C29.4054 2.83068 29.255 4.33388 29.255 5.65171L29.2517 13.4137C29.2517 13.6598 29.0522 13.8586 28.8037 13.8586H26.4818C26.2496 13.8418 26.0632 13.6497 26.0632 13.4137V6.89539C26.0632 6.37634 26.1089 5.08211 25.9977 4.59003C25.8244 3.76428 25.3044 3.53172 24.6307 3.53172C24.0682 3.53172 23.4796 3.91932 23.2409 4.53947C23.0021 5.15963 23.025 6.19771 23.025 6.89539V13.4137C23.025 13.6598 22.8255 13.8586 22.577 13.8586H20.255C20.0196 13.8418 19.8364 13.6497 19.8364 13.4137L19.8332 6.89539C19.8332 5.52363 20.0523 3.50476 18.4008 3.50476C16.7296 3.50476 16.795 5.47307 16.795 6.89539V13.4137C16.795 13.6598 16.5955 13.8586 16.347 13.8586" fill="#1D1E25"/>
<path fill-rule="evenodd" clip-rule="evenodd" d="M59.3224 0.451172C62.7726 0.451172 64.64 3.50476 64.64 7.38747C64.64 11.1387 62.5764 14.1148 59.3224 14.1148C55.9343 14.1148 54.0898 11.0612 54.0898 7.25602C54.0898 3.42724 55.9572 0.451172 59.3224 0.451172ZM59.342 2.96213C57.6284 2.96213 57.5204 5.36859 57.5204 6.86842C57.5204 8.37163 57.4975 11.5803 59.3224 11.5803C61.1243 11.5803 61.2094 8.99178 61.2094 7.41443C61.2094 6.37635 61.1669 5.13604 60.8627 4.15188C60.6011 3.2958 60.0811 2.96213 59.342 2.96213Z" fill="#1D1E25"/>
<path fill-rule="evenodd" clip-rule="evenodd" d="M69.1142 13.8586H66.7988C66.5666 13.8418 66.3802 13.6497 66.3802 13.4137L66.377 1.11177C66.3966 0.885954 66.5895 0.710694 66.825 0.710694H68.9801C69.1829 0.720798 69.3497 0.862362 69.3955 1.05448V2.93516H69.438C70.0888 1.25333 71.0012 0.451172 72.6069 0.451172C73.6502 0.451172 74.6672 0.838769 75.3213 1.90045C75.9296 2.8846 75.9296 4.53947 75.9296 5.72922V13.471C75.9034 13.6867 75.7105 13.8586 75.4816 13.8586H73.1498C72.9372 13.8418 72.7606 13.68 72.7378 13.471V6.7909C72.7378 5.44611 72.8882 3.47779 71.2825 3.47779C70.7167 3.47779 70.1967 3.86876 69.9383 4.46195C69.6113 5.21355 69.5688 5.96178 69.5688 6.7909V13.4137C69.5655 13.6598 69.3628 13.8586 69.1142 13.8586" fill="#1D1E25"/>
<path fill-rule="evenodd" clip-rule="evenodd" d="M38.1346 7.98407C38.1346 8.91768 38.1575 9.69624 37.6996 10.5254C37.3301 11.1994 36.7414 11.614 36.0906 11.614C35.1978 11.614 34.6745 10.913 34.6745 9.87824C34.6745 7.83578 36.4503 7.46503 38.1346 7.46503V7.98407ZM40.4794 13.825C40.3257 13.9665 40.1033 13.9767 39.93 13.8823C39.1582 13.2217 39.0176 12.915 38.5957 12.2847C37.3202 13.6261 36.4144 14.0272 34.7628 14.0272C32.8039 14.0272 31.2832 12.7835 31.2832 10.2928C31.2832 8.34808 32.3036 7.02351 33.7621 6.37639C35.0245 5.80342 36.7872 5.70231 38.1346 5.5439V5.23382C38.1346 4.66422 38.1771 3.99014 37.85 3.49806C37.5688 3.05654 37.0259 2.87454 36.5452 2.87454C35.6589 2.87454 34.8708 3.34302 34.6778 4.3137C34.6386 4.52941 34.4849 4.74174 34.2723 4.75186L32.019 4.50244C31.8293 4.45863 31.6168 4.30022 31.6724 4.00026C32.1891 1.1826 34.6615 0.333252 36.8722 0.333252C38.0037 0.333252 39.4819 0.64333 40.3747 1.52638C41.5063 2.61502 41.3984 4.06766 41.3984 5.64838V9.38279C41.3984 10.5051 41.8497 10.9972 42.2748 11.6039C42.422 11.8196 42.4547 12.0791 42.265 12.2409C41.7908 12.6487 40.947 13.4071 40.4827 13.8317L40.4794 13.825" fill="#1D1E25"/>
<path fill-rule="evenodd" clip-rule="evenodd" d="M7.65116 7.98432C7.65116 8.91792 7.67405 9.69648 7.2162 10.5256C6.84665 11.1997 6.26126 11.6142 5.6072 11.6142C4.71439 11.6142 4.19441 10.9132 4.19441 9.87848C4.19441 7.83602 5.9702 7.46527 7.65116 7.46527V7.98432ZM9.99599 13.8252C9.84228 13.9668 9.6199 13.9769 9.44657 13.8825C8.67477 13.2219 8.53742 12.9152 8.11227 12.285C6.83684 13.6264 5.93423 14.0275 4.27944 14.0275C2.32378 14.0275 0.799805 12.7838 0.799805 10.293C0.799805 8.34832 1.82342 7.02375 3.27872 6.37663C4.54107 5.80366 6.30378 5.70255 7.65116 5.54414V5.23407C7.65116 4.66447 7.69367 3.99038 7.36991 3.49831C7.08539 3.05678 6.54251 2.87478 6.06504 2.87478C5.17878 2.87478 4.38736 3.34327 4.19441 4.31394C4.15517 4.52965 4.00146 4.74199 3.79216 4.7521L1.53563 4.50269C1.34595 4.45887 1.13665 4.30046 1.18897 4.0005C1.70896 1.18284 4.17806 0.333496 6.38881 0.333496C7.52034 0.333496 8.99853 0.643574 9.89133 1.52662C11.0229 2.61526 10.9149 4.0679 10.9149 5.64863V9.38303C10.9149 10.5054 11.3663 10.9975 11.7914 11.6041C11.9418 11.8198 11.9745 12.0794 11.7849 12.2411C11.3107 12.649 10.4669 13.4073 10.0025 13.832L9.99599 13.8252" fill="#1D1E25"/>
</g>
<defs>
<clipPath id="clip0_266_7876">
<rect width="75.1294" height="23.3333" fill="white" transform="translate(0.799805 0.333252)"/>
</clipPath>
</defs>
</svg>
