<svg width="90" height="20" viewBox="0 0 90 20" fill="none" xmlns="http://www.w3.org/2000/svg">
<g clip-path="url(#clip0_266_7896)">
<path d="M31.9175 11.4401L31.3871 12.9391H31.3429C31.2545 12.6011 31.0925 12.0867 30.8273 11.4694L27.9838 4.3417H25.1992V15.702H27.0409V8.69183C27.0409 8.25093 27.0409 7.75126 27.0261 7.13401C27.0114 6.82538 26.9819 6.59024 26.9672 6.41389H27.0114C27.0998 6.85478 27.2029 7.1781 27.2766 7.38385L30.6947 15.6726H31.9912L35.3798 7.31037C35.4535 7.11931 35.5272 6.73721 35.6008 6.41389H35.645C35.6008 7.25158 35.5714 8.0011 35.5566 8.45668V15.6579H37.5161V4.3123H34.8347L31.9175 11.4401ZM39.3725 7.51611H41.2878V15.6579H39.3725V7.51611ZM40.3449 4.07716C40.0208 4.07716 39.7556 4.19473 39.5346 4.40048C39.3136 4.60623 39.1957 4.87077 39.1957 5.19409C39.1957 5.50271 39.3136 5.76724 39.5346 5.97299C39.7556 6.17874 40.0208 6.28162 40.3449 6.28162C40.669 6.28162 40.949 6.16405 41.1552 5.97299C41.3762 5.76724 41.4941 5.50271 41.4941 5.19409C41.4941 4.88546 41.3762 4.62093 41.1552 4.40048C40.9637 4.19473 40.6838 4.07716 40.3449 4.07716ZM48.0798 7.44263C47.7262 7.36915 47.3579 7.32506 47.0043 7.32506C46.135 7.32506 45.3394 7.51611 44.6764 7.89822C44.0134 8.28033 43.4831 8.8094 43.1442 9.47073C42.7906 10.1468 42.6138 10.9257 42.6138 11.8222C42.6138 12.6011 42.7906 13.2918 43.1295 13.9237C43.4683 14.541 43.9398 15.0407 44.5733 15.3787C45.1774 15.7167 45.8846 15.8931 46.6802 15.8931C47.5936 15.8931 48.3745 15.702 48.9933 15.3493L49.008 15.3346V13.571L48.9343 13.6298C48.6544 13.8356 48.3303 14.0119 48.0061 14.1148C47.6673 14.2324 47.3579 14.2911 47.0927 14.2911C46.3266 14.2911 45.7225 14.0707 45.2952 13.5857C44.8532 13.1154 44.6322 12.4688 44.6322 11.6605C44.6322 10.8228 44.8532 10.1615 45.31 9.67648C45.7667 9.1915 46.3708 8.94166 47.1074 8.94166C47.7262 8.94166 48.3597 9.14741 48.9343 9.55891L49.008 9.6177V7.75126L48.9933 7.73656C48.7428 7.63369 48.4629 7.51611 48.0798 7.44263ZM54.4003 7.38385C53.9289 7.38385 53.4869 7.53081 53.1038 7.83944C52.7797 8.10397 52.5587 8.48608 52.3671 8.94166H52.3524V7.51611H50.4371V15.6579H52.3524V11.4988C52.3524 10.7934 52.4997 10.2056 52.8239 9.77936C53.148 9.33847 53.5605 9.11802 54.0615 9.11802C54.2383 9.11802 54.4151 9.16211 54.6361 9.1915C54.8423 9.25029 54.9896 9.30907 55.0928 9.38256L55.1664 9.44134V7.53081L55.1222 7.51611C54.9897 7.42794 54.7244 7.38385 54.4003 7.38385ZM59.6159 7.33976C58.2751 7.33976 57.1996 7.73656 56.4482 8.51547C55.6821 9.29438 55.3138 10.3672 55.3138 11.7193C55.3138 12.9832 55.6968 14.0119 56.4335 14.7614C57.1702 15.4963 58.172 15.8784 59.4243 15.8784C60.7356 15.8784 61.7816 15.4816 62.533 14.688C63.2991 13.8943 63.6675 12.8362 63.6675 11.5282C63.6675 10.2349 63.3139 9.2062 62.592 8.45668C61.8995 7.70717 60.8829 7.33976 59.6159 7.33976ZM61.1481 13.6004C60.7945 14.056 60.2347 14.2765 59.5422 14.2765C58.8497 14.2765 58.2899 14.056 57.8921 13.571C57.4943 13.1154 57.3028 12.4541 57.3028 11.6164C57.3028 10.7493 57.509 10.088 57.8921 9.6177C58.2899 9.14741 58.835 8.91227 59.5275 8.91227C60.2052 8.91227 60.7356 9.13272 61.1186 9.5883C61.5017 10.0439 61.708 10.7052 61.708 11.5723C61.6785 12.4541 61.5164 13.1448 61.1481 13.6004ZM67.9401 10.8963C67.336 10.6464 66.953 10.4554 66.7762 10.2937C66.6288 10.1468 66.5552 9.94102 66.5552 9.67648C66.5552 9.45604 66.6436 9.23559 66.8646 9.08863C67.0856 8.94166 67.336 8.86818 67.7044 8.86818C68.0285 8.86818 68.3673 8.92697 68.6915 9.01515C69.0156 9.10332 69.3103 9.23559 69.546 9.41195L69.6197 9.47073V7.67777L69.5755 7.66308C69.3545 7.5749 69.0598 7.48672 68.7062 7.41324C68.3526 7.35445 68.0285 7.32506 67.7633 7.32506C66.8498 7.32506 66.0984 7.54551 65.5091 8.03049C64.9198 8.48608 64.6399 9.10332 64.6399 9.82345C64.6399 10.2056 64.6988 10.5436 64.8314 10.8228C64.964 11.102 65.1555 11.3666 65.4207 11.587C65.6859 11.7928 66.069 12.0279 66.5994 12.2484C67.0414 12.4394 67.3802 12.5864 67.5865 12.7039C67.7928 12.8215 67.9254 12.9538 68.0285 13.0567C68.1021 13.1742 68.1464 13.3212 68.1464 13.5122C68.1464 14.056 67.7338 14.3205 66.894 14.3205C66.5699 14.3205 66.231 14.2618 65.8332 14.1295C65.4355 13.9972 65.0671 13.8062 64.7577 13.5857L64.6841 13.5269V15.3934L64.7283 15.4081C65.0082 15.5403 65.3471 15.6285 65.7596 15.7314C66.1721 15.8049 66.5404 15.8637 66.8646 15.8637C67.8517 15.8637 68.662 15.6432 69.2366 15.1582C69.8259 14.688 70.1353 14.0854 70.1353 13.3065C70.1353 12.7627 69.988 12.2777 69.6639 11.9103C69.2366 11.5576 68.7062 11.1902 67.9401 10.8963ZM75.1888 7.33976C73.8481 7.33976 72.7726 7.73656 72.0212 8.51547C71.2698 9.29438 70.8867 10.3672 70.8867 11.7193C70.8867 12.9832 71.2698 14.0119 72.0064 14.7614C72.7431 15.4963 73.7449 15.8784 74.9973 15.8784C76.3085 15.8784 77.3546 15.4816 78.106 14.688C78.8721 13.8943 79.2404 12.8362 79.2404 11.5282C79.2404 10.2349 78.8868 9.2062 78.1649 8.45668C77.4724 7.70717 76.4558 7.33976 75.1888 7.33976ZM76.7063 13.6004C76.3527 14.056 75.7929 14.2765 75.1004 14.2765C74.3932 14.2765 73.8481 14.056 73.4503 13.571C73.0525 13.1154 72.861 12.4541 72.861 11.6164C72.861 10.7493 73.0672 10.088 73.4503 9.6177C73.8481 9.14741 74.3932 8.91227 75.0857 8.91227C75.7487 8.91227 76.2938 9.13272 76.6768 9.5883C77.0599 10.0439 77.2662 10.7052 77.2662 11.5723C77.2662 12.4541 77.0746 13.1448 76.7063 13.6004ZM89.48 9.08863V7.51611H87.5499V5.10591L87.491 5.1206L85.6641 5.66437L85.6199 5.67907V7.51611H82.7322V6.48737C82.7322 6.01708 82.85 5.64967 83.0563 5.41453C83.2626 5.17939 83.572 5.06182 83.955 5.06182C84.2202 5.06182 84.5002 5.1206 84.8095 5.25287L84.8832 5.29696V3.63627L84.839 3.62157C84.5738 3.53339 84.2202 3.47461 83.7635 3.47461C83.1889 3.47461 82.688 3.60688 82.2312 3.82732C81.7745 4.07716 81.4356 4.41518 81.1852 4.87077C80.9347 5.31166 80.8021 5.81133 80.8021 6.38449V7.51611H79.4614V9.07393H80.8021V15.6579H82.7322V9.08863H85.6199V13.2771C85.6199 14.9966 86.4302 15.8637 88.0508 15.8637C88.316 15.8637 88.596 15.8196 88.8612 15.7755C89.1411 15.7167 89.3474 15.6432 89.4652 15.5844L89.48 15.5697V13.9972L89.4063 14.056C89.2884 14.1295 89.1853 14.1883 89.0085 14.2324C88.8612 14.2765 88.7286 14.2911 88.6254 14.2911C88.2424 14.2911 87.9772 14.203 87.7856 13.9825C87.6088 13.7768 87.5204 13.4388 87.5204 12.9391V9.08863H89.48Z" fill="#737373"/>
<path d="M0.505859 0.520752H9.53728V9.52963H0.505859V0.520752Z" fill="#F25022"/>
<path d="M10.4805 0.520752H19.5119V9.52963H10.4805V0.520752Z" fill="#7FBA00"/>
<path d="M0.505859 10.4702H9.53728V19.4791H0.505859V10.4702Z" fill="#00A4EF"/>
<path d="M10.4805 10.4702H19.5119V19.4791H10.4805V10.4702Z" fill="#FFB900"/>
</g>
<defs>
<clipPath id="clip0_266_7896">
<rect width="88.9882" height="18.9583" fill="white" transform="translate(0.505859 0.520752)"/>
</clipPath>
</defs>
</svg>
