<svg width="63" height="22" viewBox="0 0 63 22" fill="none" xmlns="http://www.w3.org/2000/svg">
<path d="M51.4004 21.675C57.2669 21.675 62.0403 16.8649 62.0403 10.9534C62.0403 5.03836 57.2669 0.231689 51.4004 0.231689C45.5328 0.231689 40.7606 5.03836 40.7606 10.9534C40.7606 16.8649 45.5328 21.675 51.4004 21.675ZM51.4004 7.13019C53.4911 7.13019 55.1937 8.84519 55.1937 10.9522C55.1937 13.0592 53.4899 14.7719 51.3993 14.7719C49.3074 14.7719 47.6071 13.0592 47.6071 10.951C47.6071 8.84169 49.3086 7.12786 51.3993 7.12786L51.4004 7.13019ZM11.258 21.675C17.1245 21.675 21.8979 16.8649 21.8979 10.9534C21.8979 5.03836 17.1245 0.231689 11.258 0.231689C5.39269 0.231689 0.618164 5.03836 0.618164 10.9534C0.618164 16.8649 5.39269 21.675 11.258 21.675ZM11.258 7.13019C13.3499 7.13019 15.0513 8.84519 15.0513 10.9522C15.0513 13.0592 13.3499 14.7719 11.258 14.7719C9.16733 14.7719 7.46706 13.0592 7.46706 10.951C7.46706 8.84169 9.1685 7.12786 11.258 7.12786V7.13019ZM31.3234 6.88869L28.0568 0.371689H20.4085L27.5522 14.6284V21.3402H35.0957V14.6284L42.2394 0.371689H34.5876L31.3246 6.88869H31.3234Z" fill="#EE2E24"/>
</svg>
