<svg width="89" height="22" viewBox="0 0 89 22" fill="none" xmlns="http://www.w3.org/2000/svg">
<g clip-path="url(#clip0_266_7909)">
<path d="M31.7824 8.05375V9.21081H31.8182C32.2397 8.59132 32.9394 7.86176 34.4902 7.86176C35.6968 7.86176 36.6224 8.46845 37.019 9.38488H37.0549C37.3937 8.92155 37.7821 8.57084 38.2173 8.32254C38.7325 8.02815 39.3054 7.8592 40.0271 7.8592C41.6607 7.8592 43.1069 8.90875 43.1069 11.5556V16.5755H40.6167V11.9063C40.6167 10.565 40.1263 9.78934 39.1071 9.78934C38.3606 9.78934 37.8179 10.2552 37.6113 10.8286C37.5397 11.0258 37.5066 11.2945 37.5066 11.5198V16.5781H35.0164V11.7169C35.0164 10.5778 34.5453 9.78678 33.5399 9.78678C32.7355 9.78678 32.2314 10.3755 32.0248 10.8798C31.9367 11.0949 31.9091 11.3432 31.9091 11.5761V16.5755H29.4161V8.05375H31.7824ZM55.9602 8.05375V9.66134H56.0291C56.4863 8.43261 57.5717 7.86176 58.5248 7.86176C58.7645 7.86176 58.8967 7.87968 59.0895 7.91552V10.1477C58.8609 10.117 58.6488 10.0863 58.3513 10.0863C57.2714 10.0863 56.5194 10.6699 56.3293 11.5838C56.288 11.7732 56.2742 11.978 56.2742 12.2135V16.5781H53.7179V8.05375H55.9602ZM62.5604 5.23022V7.91296H64.7201V10.0837H62.5604V13.2861C62.5604 14.3229 62.8441 14.8246 63.6871 14.8246C64.0837 14.8246 64.3757 14.7785 64.6292 14.7196L64.6622 16.5192C64.3234 16.637 63.6017 16.765 62.8689 16.765C62.0067 16.765 61.2878 16.4859 60.8498 16.0533C60.3484 15.5593 60.117 14.7503 60.117 13.5984V5.23022H62.5604ZM27.6807 16.5755H25.2015V5.23022H27.6807V16.5755ZM21.0695 13.5319C21.0695 13.688 21.0557 13.8518 21.0089 13.9926C20.816 14.584 20.1577 15.0831 19.3368 15.0831C18.6509 15.0831 18.1054 14.7222 18.1054 13.9568C18.1054 12.7869 19.4938 12.4618 21.0722 12.4695V13.5319H21.0695ZM23.5459 11.4916C23.5459 9.55895 22.6589 7.86176 19.6591 7.86176C18.1192 7.86176 16.8961 8.26366 16.2295 8.62204L16.7171 10.1733C17.3259 9.81494 18.2983 9.52055 19.2183 9.52055C20.7417 9.51799 20.9896 10.3218 20.9896 10.8363V10.9592C17.6702 10.9541 15.5739 12.0215 15.5739 14.1974C15.5739 15.526 16.6399 16.7701 18.4966 16.7701C19.6398 16.7701 20.5929 16.3477 21.1659 15.6693H21.221C21.221 15.6693 21.6011 17.1413 23.6892 16.5781C23.579 15.9637 23.5432 15.311 23.5432 14.5251V11.4916H23.5459ZM3.11999 5.23022C3.37617 6.4308 4.1034 9.91733 4.1034 9.91733C4.40917 11.3509 4.69015 12.8535 4.90226 14.0413H4.94083C5.14743 12.7793 5.47248 11.5838 5.81957 10.1042L7.0454 5.23022H9.75876L10.9047 10.2296C11.205 11.6196 11.4446 12.6922 11.6347 13.985H11.6705C11.8771 12.6794 12.1471 11.5633 12.4418 10.1349L13.5437 5.23022H16.1469L12.9211 16.5755C10.8661 16.9928 10.0783 16.2248 9.79732 15.0063C9.51635 13.7853 8.96541 11.4635 8.96541 11.4635C8.68168 10.1912 8.4613 9.29528 8.30704 7.98976H8.26848C8.0481 9.28249 7.81671 10.1887 7.47513 11.4609L6.12258 16.5781C4.02352 16.9672 3.29628 16.3912 2.8941 14.8271C2.54701 13.4883 0.381836 5.23278 0.381836 5.23278H3.11999V5.23022ZM49.5859 13.5319C49.5859 13.688 49.5721 13.8518 49.5253 13.9926C49.3325 14.584 48.6741 15.0831 47.8532 15.0831C47.1673 15.0831 46.6218 14.7222 46.6218 13.9568C46.6218 12.7869 48.0102 12.4618 49.5886 12.4695V13.5319H49.5859ZM52.0623 11.4916C52.0623 9.55895 51.1753 7.86176 48.1755 7.86176C46.6356 7.86176 45.4125 8.26366 44.7459 8.62204L45.2335 10.1733C45.8423 9.81494 46.8147 9.52055 47.7347 9.52055C49.2553 9.51799 49.506 10.3218 49.506 10.8363V10.9592C46.1894 10.9541 44.0931 12.0215 44.0931 14.1974C44.0931 15.526 45.1619 16.7701 47.0158 16.7701C48.1562 16.7701 49.1121 16.3477 49.6823 15.6693H49.7401C49.7401 15.6693 50.1203 17.1413 52.2083 16.5781C52.0981 15.9637 52.0623 15.311 52.0623 14.5251V11.4916Z" fill="#041E42"/>
<path d="M74.7699 12.6681C75.0143 13.0824 74.9978 13.5448 74.7369 13.756L70.2283 16.8327C69.7587 17.0973 69.0558 16.7765 68.6577 16.1056C68.2568 15.432 68.3282 14.6809 68.7977 14.4162L73.7896 12.1548C74.1026 12.0372 74.5255 12.2537 74.7699 12.6681ZM80.7036 12.6681C80.9507 12.2537 81.3709 12.0399 81.6839 12.1522L86.6785 14.4136C87.1481 14.6782 87.2167 15.4293 86.8186 16.1029C86.4177 16.7738 85.712 17.0919 85.2452 16.83L80.7366 13.7533C80.4785 13.5448 80.4592 13.0797 80.7036 12.6681ZM77.7354 14.336C78.2269 14.336 78.6305 14.582 78.6854 14.9054L79.1714 20.2461C79.1714 20.7754 78.5372 21.2084 77.7381 21.2084C76.9418 21.2084 76.3048 20.7754 76.3048 20.2461L76.7881 14.9054C76.843 14.582 77.2466 14.336 77.7354 14.336ZM80.7366 8.24685L85.2452 5.16751C85.712 4.90288 86.4177 5.22097 86.8186 5.89458C87.2167 6.56818 87.1481 7.31931 86.6785 7.58394L81.6839 9.848C81.3709 9.96027 80.948 9.74643 80.7036 9.33211C80.4592 8.91779 80.4785 8.45535 80.7366 8.24685ZM73.7896 9.848L68.7977 7.58394C68.3309 7.31931 68.2595 6.56818 68.6577 5.89458C69.0558 5.22097 69.7615 4.90288 70.2283 5.16751L74.7369 8.24685C74.9978 8.45268 75.0143 8.91779 74.7699 9.33211C74.5255 9.74643 74.1026 9.96027 73.7896 9.848ZM76.7881 7.09477L76.3048 1.75404C76.3048 1.22478 76.9391 0.791748 77.7381 0.791748C78.5372 0.791748 79.1714 1.22478 79.1714 1.75404L78.6854 7.09477C78.6305 7.41554 78.2269 7.66413 77.7354 7.66413C77.2466 7.66413 76.843 7.41554 76.7881 7.09477ZM88.0377 16.8113V16.6776H88.1613C88.2025 16.6776 88.2299 16.7043 88.2299 16.7444C88.2299 16.7819 88.2025 16.8113 88.1613 16.8113H88.0377ZM87.9361 17.0545C87.9361 17.0679 87.9471 17.0812 87.9636 17.0812H88.0158C88.0295 17.0812 88.0432 17.0679 88.0432 17.0545V16.9022H88.1283L88.197 17.0625C88.2025 17.0732 88.2107 17.0812 88.2217 17.0812H88.2848C88.3041 17.0812 88.3178 17.0625 88.3096 17.0438C88.2848 16.9957 88.2601 16.9449 88.2354 16.8941C88.2766 16.8808 88.3398 16.8407 88.3398 16.7444C88.3398 16.6429 88.2546 16.5841 88.1695 16.5841H87.9636C87.9499 16.5841 87.9361 16.5974 87.9361 16.6108V17.0545ZM87.7137 16.8327C87.7137 16.6161 87.8949 16.4397 88.1173 16.4397C88.3398 16.4397 88.521 16.6135 88.521 16.8327C88.521 17.0492 88.3425 17.2256 88.1173 17.2256C87.8922 17.2256 87.7137 17.0492 87.7137 16.8327ZM87.6176 16.8327C87.6176 17.1 87.84 17.3191 88.1173 17.3191C88.3919 17.3191 88.6171 17.1 88.6171 16.8327C88.6171 16.5653 88.3919 16.3462 88.1173 16.3462C87.84 16.3462 87.6176 16.5653 87.6176 16.8327Z" fill="#FFC124"/>
</g>
<defs>
<clipPath id="clip0_266_7909">
<rect width="88.2353" height="20.4167" fill="white" transform="translate(0.381836 0.791748)"/>
</clipPath>
</defs>
</svg>
