<svg width="75" height="22" viewBox="0 0 75 22" fill="none" xmlns="http://www.w3.org/2000/svg">
<g clip-path="url(#clip0_266_7888)">
<path d="M55.415 21.2827L61.5471 14.5477L55.415 7.81177H61.885L64.9221 11.0836L67.8466 7.81177H74.0909L67.9879 14.5199L74.1746 21.2827H67.6781L64.6685 17.984L61.6874 21.2827H55.415Z" fill="#FF6600"/>
<path d="M55.4148 4.79219H48.4698V7.81188H55.4148V12.3628H48.4698V16.54H55.4148V21.2828H43.3652V0.0625H55.4148V4.79219Z" fill="#FF6600"/>
<path d="M38.282 0.0625V8.74688H38.2261C37.1008 7.4825 35.6948 7.04312 34.0634 7.04312C30.7216 7.04312 28.2043 9.26375 27.3207 12.1997C26.313 8.96469 23.7143 6.9825 19.8607 6.9825C16.7312 6.9825 14.26 8.35563 12.9703 10.5931V7.81219H6.50166V4.79281H13.5608V0.0625H0.735352V21.2831H6.50166V12.3628H12.2491C12.0777 13.0181 11.9863 13.7197 11.9863 14.46C11.9863 18.8866 15.4457 21.9925 19.8607 21.9925C23.5733 21.9925 26.0199 20.2887 27.314 17.1825H22.3725C21.704 18.1156 21.197 18.3928 19.8607 18.3928C18.3111 18.3928 16.9751 17.0713 16.9751 15.5047H27.0371C27.4735 19.0206 30.2753 22.0528 34.1203 22.0528C35.7788 22.0528 37.2974 21.2553 38.2261 19.9088H38.282V21.2825H43.3651V0.0625H38.282ZM17.1356 12.4262C17.4563 11.0784 18.5256 10.1975 19.8607 10.1975C21.3303 10.1975 22.3453 11.0512 22.6123 12.4262C22.7248 12.4262 17.1356 12.4262 17.1356 12.4262ZM35.1973 18.0519C33.3236 18.0519 32.1593 16.3453 32.1593 14.5634C32.1593 12.6587 33.1721 10.8272 35.1973 10.8272C37.2974 10.8272 38.134 12.6587 38.134 14.5634C38.1337 16.3697 37.2472 18.0519 35.1973 18.0519Z" fill="#652C8F"/>
</g>
<defs>
<clipPath id="clip0_266_7888">
<rect width="73.5294" height="21.875" fill="white" transform="translate(0.735352 0.0625)"/>
</clipPath>
</defs>
</svg>
