<svg width="71" height="24" viewBox="0 0 71 24" fill="none" xmlns="http://www.w3.org/2000/svg">
<g clip-path="url(#clip0_266_7915)">
<path d="M30.6674 12.2992C30.6674 15.538 28.1018 17.9246 24.9533 17.9246C21.8048 17.9246 19.2393 15.538 19.2393 12.2992C19.2393 9.0376 21.8048 6.67383 24.9533 6.67383C28.1018 6.67383 30.6674 9.0376 30.6674 12.2992ZM28.1661 12.2992C28.1661 10.2753 26.6791 8.8905 24.9533 8.8905C23.2276 8.8905 21.7406 10.2753 21.7406 12.2992C21.7406 14.3028 23.2276 15.7079 24.9533 15.7079C26.6791 15.7079 28.1661 14.3003 28.1661 12.2992Z" fill="#EA4335"/>
<path d="M42.9946 12.2992C42.9946 15.538 40.429 17.9246 37.2805 17.9246C34.132 17.9246 31.5664 15.538 31.5664 12.2992C31.5664 9.04013 34.132 6.67383 37.2805 6.67383C40.429 6.67383 42.9946 9.0376 42.9946 12.2992ZM40.4932 12.2992C40.4932 10.2753 39.0063 8.8905 37.2805 8.8905C35.5547 8.8905 34.0678 10.2753 34.0678 12.2992C34.0678 14.3028 35.5547 15.7079 37.2805 15.7079C39.0063 15.7079 40.4932 14.3003 40.4932 12.2992Z" fill="#FBBC05"/>
<path d="M54.8074 7.01368V17.113C54.8074 21.2673 52.3266 22.964 49.3938 22.964C46.633 22.964 44.9714 21.1405 44.3448 19.6492L46.5226 18.7539C46.9104 19.6695 47.8606 20.7499 49.3912 20.7499C51.2685 20.7499 52.4318 19.6061 52.4318 17.4528V16.6438H52.3445C51.7847 17.326 50.7061 17.922 49.345 17.922C46.4969 17.922 43.8877 15.472 43.8877 12.3195C43.8877 9.14412 46.4969 6.67383 49.345 6.67383C50.7035 6.67383 51.7821 7.26984 52.3445 7.9318H52.4318V7.01622H54.8074V7.01368ZM52.609 12.3195C52.609 10.3387 51.2711 8.8905 49.5684 8.8905C47.8426 8.8905 46.3968 10.3387 46.3968 12.3195C46.3968 14.28 47.8426 15.7079 49.5684 15.7079C51.2711 15.7079 52.609 14.28 52.609 12.3195Z" fill="#4285F4"/>
<path d="M58.7239 1.09424V17.5797H56.2842V1.09424H58.7239Z" fill="#34A853"/>
<path d="M68.2312 14.1507L70.1727 15.429C69.5461 16.3446 68.0361 17.9221 65.4269 17.9221C62.191 17.9221 59.7744 15.4518 59.7744 12.2967C59.7744 8.95146 62.2116 6.67139 65.1469 6.67139C68.1028 6.67139 69.5487 8.99458 70.0212 10.25L70.2806 10.8891L62.6661 14.0036C63.2491 15.1323 64.1556 15.708 65.4269 15.708C66.7006 15.708 67.5841 15.0891 68.2312 14.1507ZM62.2552 12.1268L67.3452 10.0395C67.0653 9.33697 66.223 8.84747 65.2317 8.84747C63.9605 8.84747 62.191 9.95581 62.2552 12.1268Z" fill="#EA4335"/>
<path d="M10.0046 10.8357V8.44913H18.1482C18.2278 8.86508 18.2689 9.3571 18.2689 9.88971C18.2689 11.6803 17.7732 13.8944 16.1758 15.472C14.6221 17.0698 12.637 17.922 10.0072 17.922C5.1329 17.922 1.03418 14.0009 1.03418 9.18718C1.03418 4.37341 5.1329 0.452393 10.0072 0.452393C12.7037 0.452393 14.6247 1.49732 16.068 2.85928L14.3627 4.54334C13.3278 3.58464 11.9256 2.83899 10.0046 2.83899C6.44522 2.83899 3.66137 5.67196 3.66137 9.18718C3.66137 12.7024 6.44522 15.5354 10.0046 15.5354C12.3134 15.5354 13.6283 14.6198 14.4706 13.7879C15.1537 13.1133 15.6031 12.1495 15.7803 10.8332L10.0046 10.8357Z" fill="#4285F4"/>
</g>
<defs>
<clipPath id="clip0_266_7915">
<rect width="69.8529" height="23.3333" fill="white" transform="translate(0.941406 0.333252)"/>
</clipPath>
</defs>
</svg>
