<svg width="72" height="26" viewBox="0 0 72 26" fill="none" xmlns="http://www.w3.org/2000/svg">
<g clip-path="url(#clip0_266_7924)">
<path fill-rule="evenodd" clip-rule="evenodd" d="M63.2624 12.1552L58.7129 20.0553L54.8313 20.0708L63.2624 5.20119L71.6619 20.0708H67.7189L63.2624 12.1545V12.1552ZM51.012 16.6317H55.3594L53.3409 20.0708H47.6746L47.69 15.8833V5.2926H51.0281L51.0128 16.6317H51.012ZM39.089 5.29338C43.2342 5.30887 46.5878 8.60927 46.5724 12.689C46.557 16.7541 43.2035 20.0553 39.0575 20.0553C34.9277 20.0398 31.5742 16.7394 31.5742 12.6588C31.5895 8.59377 34.9431 5.29338 39.089 5.29338ZM39.0737 16.617C41.2935 16.617 43.0782 14.8591 43.0782 12.689C43.0944 10.5198 41.2935 8.7464 39.089 8.7464C36.8839 8.7309 35.083 10.5043 35.083 12.6743C35.0676 14.8436 36.8685 16.617 39.0729 16.617H39.0737ZM25.3952 11.5153C25.3491 10.9033 25.193 10.0937 24.9601 9.31505C24.4809 7.70679 23.6478 6.22827 22.5228 4.98968C21.9325 4.3482 21.2653 3.75165 20.2707 3.04896C19.5126 2.67181 18.7671 2.26924 18.0356 1.84191C17.5544 1.56688 16.9795 1.22987 16.2193 0.985827C15.318 0.77138 14.3966 0.653739 13.4707 0.63487C12.5714 0.60388 11.6698 0.681354 10.8005 0.848698C9.88427 1.00132 9.12333 1.24536 8.11412 1.49018C5.8313 2.4834 4.06192 3.98097 2.54004 5.96818C-2.76964 13.4405 2.02813 23.9088 10.8935 25.1461C12.3531 25.3452 13.8127 25.2685 15.194 24.9478L16.1724 24.6882C16.2032 24.6727 16.25 24.6572 16.2808 24.6572L17.3991 24.2296C17.4606 24.1986 17.5075 24.1831 17.5698 24.1529L18.0356 23.939C18.9293 23.4945 19.7682 22.9458 20.5351 22.3043C19.837 22.9437 19.0777 23.5118 18.2685 24.0002L18.3146 24.0312C18.4706 23.9847 18.6097 23.939 18.765 23.9088C18.765 23.9088 18.765 24.1529 18.7342 24.1072C18.486 24.2908 18.8741 24.1227 19.3707 23.8623C19.868 23.6028 20.3491 23.2813 20.7834 22.9148C21.4206 22.3803 21.9794 21.7992 22.7711 20.8525C23.5781 19.4308 24.5881 18.1928 25.0539 16.5271C25.2092 16.084 25.3483 15.5649 25.4421 15.0295C25.5343 14.495 25.5973 13.9449 25.5973 13.3793C25.582 12.8138 25.5197 12.2327 25.3952 11.5153ZM13.9057 24.0769C16.6228 23.6485 18.9049 22.1362 20.768 20.0731C21.2807 19.3239 21.6842 18.6359 22.1808 17.8875C22.8018 16.359 22.7557 14.9993 22.9571 14.0371C23.2061 12.2939 22.6158 10.8885 22.1193 9.39098C21.3583 7.64859 20.3491 6.35012 18.579 5.34141C14.1071 2.5601 8.02112 3.33871 5.11801 7.49596C5.10264 7.49596 5.02424 7.60288 4.86898 7.81671C5.07113 6.96139 5.5838 6.45704 6.09571 5.9674C7.61759 4.71465 9.38774 3.72066 11.4062 3.23257C13.689 2.98775 15.9549 3.23257 17.9887 4.22579C21.0324 5.9674 23.0509 8.70378 23.5628 11.9422V14.9381C22.9263 19.8438 18.7343 23.5726 13.9057 24.0769ZM25.0693 12.9207C24.9601 5.73885 17.8649 0.894407 10.9557 1.8729C8.93733 2.37648 6.73213 3.3852 5.16413 4.79135C4.40319 5.29493 4.04655 6.22772 3.28561 6.97611C0.241842 11.4541 0.770658 17.1849 4.55845 20.6696C5.04433 21.1538 5.56313 21.6032 6.11108 22.0146C2.94434 20.1033 1.51546 17.2143 1.01892 13.7009C1.01892 12.4473 1.26719 11.2093 1.53083 9.95654C3.30175 4.46983 8.87507 0.481471 14.9465 1.49018C15.9557 1.735 16.9649 1.99454 17.9902 2.23936C19.2631 2.74294 20.5205 3.49211 21.5297 4.4861C22.539 5.47854 23.2999 6.73207 24.0608 7.96933C24.5727 8.96332 24.8218 10.2161 25.07 11.2093C25.1162 11.7749 25.1162 12.3559 25.07 12.9215L25.0693 12.9207Z" fill="#1D1E25"/>
<path fill-rule="evenodd" clip-rule="evenodd" d="M18.7653 13.0279C18.7653 16.1152 16.1881 18.6215 13.0052 18.6215C9.82309 18.6215 7.24512 16.1152 7.24512 13.0279C7.24512 9.94134 9.82232 7.43506 13.0052 7.43506C16.1881 7.43506 18.7653 9.94134 18.7653 13.0287V13.0279Z" fill="white"/>
<path fill-rule="evenodd" clip-rule="evenodd" d="M18.797 12.0806C18.7193 11.6529 18.5948 11.3167 18.4711 10.8433C17.9738 9.80362 17.2443 8.99402 16.2812 8.30605C12.6795 5.90746 7.72642 8.21463 7.19914 12.3107C6.99776 13.9307 7.57192 15.4894 8.59651 16.6818C8.28598 16.3602 7.94471 16.0248 7.71181 15.6421L7.68107 15.6731C7.71181 15.7645 7.83633 15.8257 7.86708 15.9171C7.86708 15.9171 7.74256 15.9171 7.77407 15.9016C7.68107 15.7955 7.7587 15.9636 7.89782 16.1921C8.02234 16.4214 8.1776 16.6361 8.36361 16.8344C8.62802 17.1249 8.90703 17.3845 9.37282 17.7362C10.0569 18.0871 10.6618 18.5458 11.4535 18.7596C11.671 18.8216 11.9193 18.882 12.1683 18.9277C12.432 18.9742 12.6802 18.9897 12.96 18.9897C13.2236 18.9897 13.5034 18.9587 13.8447 18.8967C14.1966 18.855 14.5445 18.7837 14.8846 18.6837C15.6445 18.4532 16.3445 18.0563 16.9346 17.5216C17.2297 17.2473 17.6494 16.8956 17.9745 16.4369C18.2389 15.9179 18.2697 15.6576 18.3942 15.4282C18.5179 15.1989 18.6732 14.9394 18.7824 14.5876C18.8713 14.1704 18.9233 13.7459 18.9376 13.3194C18.9222 12.8917 18.8915 12.4788 18.7977 12.0814L18.797 12.0806ZM15.1014 9.23884C15.6294 9.54408 15.7071 9.58979 15.4273 9.39146C15.8316 9.48288 16.0799 9.7122 16.3281 9.94153C16.9338 10.6295 17.4303 11.4391 17.6786 12.3711C17.8185 13.4255 17.7094 14.48 17.2597 15.4127C16.4526 16.8336 15.1637 17.7811 13.6264 18.0407C13.4558 18.0407 13.2698 18.0407 13.0984 18.0561C13.5334 17.9794 13.8132 17.7044 14.6049 17.4139C15.458 17.1086 16.4211 15.6878 16.8877 14.8619C18.2535 12.6152 16.6387 10.5373 15.1014 9.23884ZM12.1829 18.0709C9.82323 17.8268 8.0062 15.8861 7.75793 13.6394C7.97469 14.8929 8.72025 15.8551 9.72946 16.7112C10.0869 16.9405 10.6142 17.2613 10.9716 17.4906C11.5772 17.7199 11.9339 17.9647 12.5242 18.0716H12.1829V18.0709ZM18.5326 13.9911C18.4249 14.4652 18.3158 14.9231 18.2067 15.3972C17.9738 15.9783 17.6325 16.5741 17.1667 17.0474C16.7009 17.5216 16.1106 17.888 15.5211 18.2398C15.0553 18.4838 14.465 18.6062 13.9838 18.7278C13.704 18.7588 13.3781 18.6364 13.0984 18.6217C16.5457 18.5295 18.9053 15.3058 18.3934 12.1116C18.1444 11.1796 17.6479 10.3692 17.0422 9.55958C16.7939 9.20785 16.312 8.99402 15.9553 8.64229C13.797 7.28262 10.9408 7.55765 9.31056 9.34575C9.08196 9.58072 8.86909 9.83074 8.67337 10.0941C9.54345 8.81041 10.9408 7.90938 12.6172 7.64907C13.2075 7.63358 13.8132 7.74127 14.4027 7.84818C17.0114 8.64229 18.9522 11.1796 18.5326 13.9919V13.9911Z" fill="#D7DF23"/>
</g>
<defs>
<clipPath id="clip0_266_7924">
<rect width="71.4824" height="24.7917" fill="white" transform="translate(0.258789 0.604248)"/>
</clipPath>
</defs>
</svg>
