<svg width="76" height="24" viewBox="0 0 76 24" fill="none" xmlns="http://www.w3.org/2000/svg">
<g clip-path="url(#clip0_266_7872)">
<path d="M21.7105 16.8698C21.5917 16.5854 21.4804 16.2864 21.3616 16.0312L20.8121 14.8135L20.7898 14.7917C19.1563 11.2917 17.4114 7.73332 15.5626 4.23332L15.4884 4.08748C15.3027 3.74478 15.1171 3.36561 14.9241 3.01561C14.6865 2.59998 14.4563 2.15519 14.0776 1.73228C13.7085 1.28977 13.2439 0.933246 12.7175 0.688441C12.1911 0.443635 11.6158 0.31665 11.0333 0.31665C10.4509 0.31665 9.87564 0.443635 9.34919 0.688441C8.82274 0.933246 8.3582 1.28977 7.98908 1.73228C7.64011 2.15519 7.38023 2.59998 7.14263 3.01561C6.95701 3.39478 6.77138 3.76665 6.57833 4.10936L6.50408 4.25519C4.68495 7.75519 2.91036 11.3135 1.27686 14.8135L1.23231 14.8573C1.06896 15.2364 0.875906 15.6302 0.690281 16.0531C0.57148 16.3083 0.45268 16.5854 0.333879 16.8917C0.0131422 17.6936 -0.0892792 18.5637 0.036709 19.4164C0.162697 20.269 0.512746 21.0747 1.05236 21.754C1.59197 22.4334 2.30252 22.9629 3.11398 23.2904C3.92544 23.6179 4.8098 23.7322 5.6799 23.6219C6.51408 23.514 7.31732 23.2412 8.04106 22.8198C9.00631 22.2875 9.93444 21.5146 10.9739 20.3989C12.0134 21.5146 12.9639 22.2875 13.9068 22.8271C14.8137 23.3498 15.8406 23.6383 16.8917 23.6656C18.1089 23.6706 19.2869 23.2429 20.2081 22.4615C21.1293 21.6802 21.7315 20.5979 21.9036 19.4146C22.1025 18.5642 22.0352 17.6747 21.7105 16.8625V16.8698ZM11.0482 18.0802C9.77109 16.476 8.93949 15.0031 8.65734 13.7417C8.54044 13.2742 8.51524 12.7892 8.58309 12.3125C8.63506 11.9406 8.77614 11.6125 8.96919 11.3354C9.41469 10.701 10.1943 10.3073 11.0482 10.3073C11.4537 10.2951 11.8559 10.382 12.2188 10.5602C12.5817 10.7384 12.8938 11.0022 13.1272 11.3281C13.3203 11.6198 13.4613 11.9406 13.5059 12.3125C13.5801 12.7354 13.5504 13.2239 13.4316 13.7417C13.1495 14.9812 12.3179 16.4687 11.0482 18.0802ZM20.5077 19.1594C20.4233 19.7602 20.1801 20.3288 19.8023 20.8085C19.4245 21.2883 18.9253 21.6624 18.3544 21.8937C17.7901 22.1271 17.1664 22.1927 16.5576 22.1271C15.9636 22.0542 15.3696 21.8646 14.7607 21.5146C13.7498 20.901 12.8408 20.1386 12.0654 19.2542C13.6247 17.3583 14.5677 15.6302 14.9241 14.0917C15.0948 13.3625 15.1171 12.7062 15.0429 12.101C14.9501 11.5274 14.7323 10.9802 14.4043 10.4969C14.0298 9.97278 13.5299 9.54708 12.9486 9.25719C12.3673 8.9673 11.7223 8.8221 11.0705 8.83436C9.69684 8.83436 8.47171 9.46144 7.72921 10.4896C7.39496 10.9717 7.17894 11.5232 7.09808 12.101C7.00156 12.7135 7.02383 13.3917 7.21688 14.0917C7.57328 15.6302 8.53854 17.3802 10.0755 19.2687C9.31332 20.1701 8.40219 20.9392 7.38023 21.5437C6.76395 21.8937 6.17738 22.076 5.58337 22.1489C4.65962 22.2651 3.72649 22.0186 2.98681 21.4629C2.24714 20.9072 1.76071 20.0872 1.63326 19.1812C1.55901 18.5979 1.61098 18.0146 1.84859 17.3583C1.92284 17.125 2.03421 16.8917 2.15301 16.6146C2.31636 16.2354 2.50941 15.8417 2.69504 15.4479L2.72474 15.3969C4.32855 11.9187 6.08085 8.36769 7.89998 4.88957L7.97423 4.74373C8.15986 4.39373 8.34549 4.02186 8.53854 3.67186C8.73159 3.29998 8.93949 2.94269 9.20679 2.65103C9.43816 2.37979 9.72727 2.16166 10.0538 2.012C10.3802 1.86233 10.7362 1.78477 11.0965 1.78477C11.4568 1.78477 11.8127 1.86233 12.1392 2.012C12.4656 2.16166 12.7548 2.37979 12.9861 2.65103C13.246 2.94269 13.4613 3.29998 13.6544 3.67186C13.84 4.02186 14.0256 4.40103 14.2187 4.74373L14.2929 4.88957C16.1046 8.36769 17.8569 11.9187 19.4905 15.3969L19.5127 15.4187C19.7058 15.7979 19.8691 16.2208 20.0548 16.5854C20.1736 16.8698 20.2924 17.0958 20.3666 17.3364C20.5077 17.9927 20.5819 18.576 20.5077 19.1594ZM30.8433 17.9198C30.2838 17.9278 29.7297 17.812 29.2219 17.581C28.7142 17.35 28.266 17.0098 27.9104 16.5854C27.1115 15.6812 26.6876 14.5154 26.7224 13.3187C26.7102 12.0961 27.1479 10.9102 27.955 9.97915C28.3283 9.54939 28.793 9.20524 29.3164 8.97091C29.8398 8.73659 30.4092 8.6178 30.9844 8.6229C31.5256 8.60835 32.0617 8.72921 32.5423 8.97412C33.0229 9.21902 33.4322 9.57993 33.7317 10.0229L33.8059 8.87811H35.974V17.6864H33.7985L33.7242 16.4031C33.4155 16.8761 32.9887 17.2637 32.4845 17.5292C31.9803 17.7946 31.4153 17.9291 30.8433 17.9198ZM31.4076 15.8198C31.8383 15.8198 32.217 15.7031 32.5734 15.4917C32.9001 15.2583 33.1674 14.9521 33.3753 14.5802C33.5609 14.2083 33.6574 13.7635 33.6574 13.2677C33.6864 12.837 33.601 12.4064 33.4097 12.0178C33.2184 11.6293 32.9276 11.2962 32.5659 11.051C32.2184 10.8384 31.8171 10.7257 31.4076 10.7257C30.9981 10.7257 30.5969 10.8384 30.2493 11.051C29.9226 11.2844 29.6553 11.5906 29.4474 11.9625C29.2511 12.3726 29.1545 12.8219 29.1653 13.275C29.1363 13.7056 29.2217 14.1363 29.413 14.5248C29.6043 14.9134 29.895 15.2465 30.2567 15.4917C30.6057 15.7031 30.9844 15.8198 31.4076 15.8198ZM39.6865 6.50103C39.6865 6.75623 39.642 6.98957 39.5232 7.17915C39.4044 7.36144 39.241 7.52915 39.0257 7.64582C38.8104 7.76248 38.5802 7.80623 38.3426 7.80623C38.105 7.80623 37.8674 7.76248 37.6521 7.64582C37.4484 7.53448 37.2772 7.37383 37.1546 7.17915C37.0396 6.97143 36.9832 6.73732 36.9912 6.50103C36.9912 6.23853 37.0432 6.00519 37.1546 5.8229C37.2734 5.60415 37.4442 5.4729 37.6521 5.35623C37.8674 5.23957 38.0976 5.18853 38.3426 5.18853C38.5789 5.18318 38.8127 5.23815 39.0209 5.34806C39.2291 5.45798 39.4048 5.61908 39.5306 5.81561C39.6387 6.0282 39.6922 6.26349 39.6865 6.50103ZM37.162 17.6573V8.86353H39.5232V17.6719H37.1546L37.162 17.6573ZM45.8345 11.1677V11.1969C45.7231 11.1458 45.5746 11.1239 45.4632 11.1021C45.3147 11.0729 45.1959 11.0729 45.0548 11.0729C44.394 11.0729 43.8965 11.2625 43.5698 11.6562C43.2134 12.0573 43.0501 12.6187 43.0501 13.3406V17.6646H40.6815V8.85623H42.857L42.9313 10.1906C43.1689 9.72394 43.451 9.37394 43.852 9.11144C44.2508 8.85639 44.7203 8.72902 45.1959 8.74686C45.3667 8.74686 45.53 8.76144 45.6711 8.79061C45.7454 8.81248 45.7899 8.81248 45.8345 8.83436V11.1677ZM46.7849 17.6573V5.24686H49.146V9.98644C49.4802 9.56353 49.8588 9.2354 50.334 8.98019C51.0863 8.61797 51.941 8.51522 52.76 8.68852C53.5791 8.86183 54.3148 9.30108 54.8484 9.9354C55.6491 10.8415 56.0732 12.0102 56.0365 13.2094C56.0487 14.432 55.611 15.6179 54.8039 16.5489C54.4306 16.9787 53.9658 17.3229 53.4424 17.5572C52.919 17.7915 52.3497 17.9103 51.7745 17.9052C51.2333 17.9197 50.6971 17.7989 50.2166 17.554C49.736 17.3091 49.3267 16.9482 49.0272 16.5052L48.953 17.65L46.7849 17.6719V17.6573ZM51.3513 15.8198C51.7745 15.8198 52.1532 15.7031 52.5096 15.4917C52.8363 15.2583 53.1036 14.9521 53.3115 14.5802C53.5045 14.2083 53.5936 13.7635 53.5936 13.2677C53.5936 12.7792 53.5045 12.3344 53.3115 11.9625C53.1165 11.6039 52.8425 11.2925 52.5096 11.051C52.162 10.8384 51.7607 10.7257 51.3513 10.7257C50.9418 10.7257 50.5405 10.8384 50.193 11.051C49.8588 11.2844 49.599 11.5906 49.3836 11.9625C49.1873 12.3726 49.0907 12.8219 49.1015 13.275C49.0725 13.7056 49.1579 14.1363 49.3492 14.5248C49.5405 14.9134 49.8312 15.2465 50.193 15.4917C50.5419 15.7031 50.9206 15.8198 51.3513 15.8198ZM56.9275 17.6646V8.85623H59.103L59.1772 10.001C59.4506 9.5622 59.8384 9.20307 60.3005 8.96079C60.7627 8.7185 61.2823 8.60185 61.8057 8.6229C62.4042 8.61275 62.9925 8.77611 63.497 9.09256C64.0015 9.40901 64.3998 9.8645 64.6421 10.4021C64.9019 10.9562 65.043 11.6417 65.043 12.4073V17.6864H62.6744V12.7135C62.6744 12.101 62.5333 11.6198 62.2512 11.2625C61.969 10.9125 61.5829 10.7229 61.0929 10.7229C60.7365 10.7229 60.4246 10.7958 60.1499 10.9562C59.89 11.1239 59.6747 11.3354 59.5114 11.6344C59.3462 11.9366 59.2643 12.2759 59.2738 12.6187V17.6646H56.9275ZM66.2236 17.6646V5.23957H68.5922V9.97915C68.913 9.55387 69.3304 9.20789 69.8111 8.96867C70.2919 8.72945 70.8228 8.60357 71.3617 8.60103C71.9212 8.59299 72.4754 8.70876 72.9831 8.93976C73.4908 9.17076 73.9391 9.51105 74.2946 9.9354C75.0895 10.8414 75.5107 12.0066 75.4752 13.2021C75.4881 14.4248 75.0503 15.611 74.2426 16.5417C73.8693 16.9714 73.4046 17.3156 72.8812 17.5499C72.3578 17.7842 71.7884 17.903 71.2132 17.8979C70.672 17.9124 70.1359 17.7916 69.6553 17.5467C69.1747 17.3018 68.7654 16.9409 68.466 16.4979L68.3991 17.6427L66.2236 17.6646ZM70.8123 15.8198C71.2429 15.8198 71.6216 15.7031 71.9706 15.4917C72.3047 15.2583 72.5646 14.9521 72.7799 14.5802C72.9655 14.2083 73.062 13.7635 73.062 13.2677C73.091 12.837 73.0056 12.4064 72.8143 12.0178C72.623 11.6293 72.3323 11.2962 71.9706 11.051C71.623 10.8384 71.2217 10.7257 70.8123 10.7257C70.4028 10.7257 70.0015 10.8384 69.654 11.051C69.3273 11.2844 69.06 11.5906 68.8521 11.9625C68.6448 12.3689 68.5476 12.8209 68.5699 13.275C68.541 13.7056 68.6263 14.1363 68.8176 14.5248C69.0089 14.9134 69.2997 15.2465 69.6614 15.4917C70.0104 15.7031 70.3668 15.8198 70.8123 15.8198Z" fill="#FF385C"/>
</g>
<defs>
<clipPath id="clip0_266_7872">
<rect width="75.7353" height="23.3333" fill="white" transform="translate(0 0.333252)"/>
</clipPath>
</defs>
</svg>
